<svg xmlns="http://www.w3.org/2000/svg" xmlns:xlink="http://www.w3.org/1999/xlink" width="500" zoomAndPan="magnify" viewBox="0 0 375 374.999991" height="500" preserveAspectRatio="xMidYMid meet" version="1.0"><defs><clipPath id="86ffdeb50d"><path d="M 130 233 L 159 233 L 159 261.390625 L 130 261.390625 Z M 130 233 " clip-rule="nonzero"/></clipPath><clipPath id="24e8cb303a"><path d="M 216 233 L 245 233 L 245 261.390625 L 216 261.390625 Z M 216 233 " clip-rule="nonzero"/></clipPath><clipPath id="744457ba45"><path d="M 120.621094 274.75 L 254.121094 274.75 L 254.121094 335.5 L 120.621094 335.5 Z M 120.621094 274.75 " clip-rule="nonzero"/></clipPath></defs><rect x="-37.5" width="450" fill="#ffffff" y="-37.499999" height="449.999989" fill-opacity="1"/><rect x="-37.5" width="450" fill="#ffffff" y="-37.499999" height="449.999989" fill-opacity="1"/><g clip-path="url(#86ffdeb50d)"><path fill="#000000" d="M 144.363281 233.304688 C 136.652344 233.304688 130.40625 239.550781 130.40625 247.261719 C 130.40625 254.976562 136.652344 261.222656 144.363281 261.222656 C 152.078125 261.222656 158.324219 254.976562 158.324219 247.261719 C 158.324219 239.5625 152.078125 233.304688 144.363281 233.304688 Z M 144.363281 233.304688 " fill-opacity="1" fill-rule="nonzero"/></g><g clip-path="url(#24e8cb303a)"><path fill="#000000" d="M 244.128906 247.277344 C 244.128906 248.195312 244.039062 249.101562 243.859375 250 C 243.679688 250.898438 243.417969 251.773438 243.066406 252.621094 C 242.714844 253.46875 242.285156 254.273438 241.777344 255.035156 C 241.265625 255.796875 240.6875 256.5 240.039062 257.148438 C 239.390625 257.796875 238.6875 258.375 237.925781 258.886719 C 237.160156 259.394531 236.355469 259.824219 235.511719 260.175781 C 234.664062 260.527344 233.789062 260.789062 232.890625 260.96875 C 231.992188 261.148438 231.085938 261.238281 230.167969 261.238281 C 229.25 261.238281 228.34375 261.148438 227.445312 260.96875 C 226.546875 260.789062 225.671875 260.527344 224.824219 260.175781 C 223.980469 259.824219 223.175781 259.394531 222.414062 258.886719 C 221.648438 258.375 220.945312 257.796875 220.296875 257.148438 C 219.648438 256.5 219.070312 255.796875 218.5625 255.035156 C 218.050781 254.273438 217.621094 253.46875 217.269531 252.621094 C 216.921875 251.773438 216.65625 250.902344 216.476562 250 C 216.296875 249.101562 216.207031 248.195312 216.207031 247.277344 C 216.207031 246.359375 216.296875 245.453125 216.476562 244.554688 C 216.65625 243.65625 216.921875 242.78125 217.269531 241.9375 C 217.621094 241.089844 218.050781 240.285156 218.5625 239.523438 C 219.070312 238.761719 219.648438 238.054688 220.296875 237.40625 C 220.945312 236.757812 221.648438 236.179688 222.414062 235.671875 C 223.175781 235.160156 223.980469 234.730469 224.824219 234.378906 C 225.671875 234.03125 226.546875 233.765625 227.445312 233.585938 C 228.34375 233.40625 229.25 233.316406 230.167969 233.316406 C 231.085938 233.316406 231.992188 233.40625 232.890625 233.585938 C 233.789062 233.765625 234.664062 234.03125 235.511719 234.378906 C 236.355469 234.730469 237.160156 235.160156 237.925781 235.671875 C 238.6875 236.179688 239.390625 236.757812 240.039062 237.40625 C 240.6875 238.054688 241.265625 238.761719 241.777344 239.523438 C 242.285156 240.285156 242.714844 241.089844 243.066406 241.9375 C 243.417969 242.78125 243.679688 243.65625 243.859375 244.554688 C 244.039062 245.453125 244.128906 246.359375 244.128906 247.277344 Z M 244.128906 247.277344 " fill-opacity="1" fill-rule="nonzero"/></g><path fill="#e63946" d="M 282.152344 101.246094 C 278.335938 97 272.882812 94.566406 267.167969 94.566406 L 229.507812 94.550781 C 234.859375 90.046875 238.933594 85.039062 241.609375 80.304688 C 246.085938 72.390625 246.515625 63.4375 242.789062 55.753906 C 239.320312 48.585938 232.703125 43.589844 225.074219 42.398438 C 206.121094 39.433594 195.007812 54.976562 187.425781 75.496094 C 179.8125 54.960938 168.671875 39.417969 149.789062 42.398438 C 142.164062 43.589844 135.542969 48.570312 132.074219 55.753906 C 128.359375 63.4375 128.777344 72.375 133.253906 80.304688 C 135.917969 85.023438 139.988281 90.019531 145.328125 94.523438 L 145.085938 94.523438 L 107.664062 94.566406 C 101.964844 94.582031 96.511719 97.011719 92.710938 101.257812 C 88.898438 105.503906 87.054688 111.1875 87.660156 116.859375 L 97.675781 210.464844 C 98.769531 220.726562 107.378906 228.46875 117.710938 228.46875 L 257.210938 228.453125 C 267.53125 228.453125 276.148438 220.710938 277.230469 210.449219 L 287.21875 116.859375 C 287.808594 111.1875 285.964844 105.488281 282.152344 101.246094 Z M 167.03125 176.730469 L 165.707031 149.875 L 209.097656 149.875 L 208.0625 176.730469 Z M 207.472656 191.839844 L 206.636719 213.355469 L 168.859375 213.355469 L 167.792969 191.839844 Z M 151.90625 176.742188 L 109.234375 176.742188 L 106.355469 149.890625 L 150.566406 149.890625 Z M 210.652344 109.664062 L 209.675781 134.777344 L 164.945312 134.777344 L 163.691406 109.648438 Z M 224.210938 149.875 L 268.480469 149.875 L 265.613281 176.730469 L 223.171875 176.730469 Z M 270.910156 111.347656 C 271.472656 111.964844 272.378906 113.304688 272.179688 115.246094 L 270.089844 134.761719 L 224.785156 134.761719 L 225.765625 109.648438 L 267.167969 109.664062 C 269.125 109.679688 270.351562 110.730469 270.910156 111.347656 Z M 220.800781 57.175781 C 221.460938 57.175781 222.109375 57.234375 222.742188 57.335938 C 225.476562 57.765625 227.894531 59.636719 229.203125 62.34375 C 230.097656 64.199219 231.203125 68.042969 228.457031 72.894531 C 223.492188 81.6875 212.421875 90.550781 197.511719 93.402344 C 206.261719 62.847656 214.335938 57.175781 220.800781 57.175781 Z M 145.660156 62.34375 C 146.96875 59.636719 149.386719 57.765625 152.121094 57.335938 C 152.753906 57.234375 153.386719 57.175781 154.066406 57.175781 C 160.527344 57.175781 168.601562 62.847656 177.351562 93.402344 C 162.441406 90.550781 151.359375 81.6875 146.40625 72.894531 C 143.671875 68.042969 144.765625 64.199219 145.660156 62.34375 Z M 103.9375 111.347656 C 104.5 110.730469 105.722656 109.679688 107.679688 109.679688 L 145.085938 109.636719 L 148.59375 109.636719 L 149.847656 134.777344 L 104.773438 134.777344 L 102.6875 115.246094 C 102.457031 113.320312 103.375 111.980469 103.9375 111.347656 Z M 112.671875 208.867188 L 110.859375 191.839844 L 152.667969 191.839844 L 153.734375 213.355469 L 117.695312 213.355469 C 115.105469 213.371094 112.945312 211.429688 112.671875 208.867188 Z M 257.179688 213.34375 L 221.75 213.34375 L 222.582031 191.828125 L 264.003906 191.828125 L 262.191406 208.851562 C 261.917969 211.414062 259.773438 213.34375 257.179688 213.34375 Z M 257.179688 213.34375 " fill-opacity="1" fill-rule="nonzero"/><g clip-path="url(#744457ba45)"><path fill="#000000" d="M 240.164062 274.777344 L 235.914062 274.777344 C 235.914062 301.484375 214.070312 323.335938 187.371094 323.335938 C 160.671875 323.335938 138.824219 301.484375 138.824219 274.777344 L 120.621094 274.777344 L 120.621094 286.917969 L 127.902344 286.917969 C 133.363281 314.835938 158.242188 335.472656 187.371094 335.472656 C 216.496094 335.472656 241.378906 314.835938 246.839844 286.917969 L 254.121094 286.917969 L 254.121094 274.777344 Z M 240.164062 274.777344 " fill-opacity="1" fill-rule="nonzero"/></g></svg>
